
<svg width="500" height="550" viewBox="0 0 500 550" 
    xmlns="http://www.w3.org/2000/svg"
    style="user-select: none; cursor: default;">
  <rect width="500" height="550" fill="#2d2d2d" rx="5" stroke="#ffffff" stroke-width="3"/>
  <!-- 网格 -->
  <path d="M 45,45 h 410 v 460 h -410 Z" stroke="#ffffff" stroke-width="4" fill="none"/>
  <g stroke="#ffffff" stroke-width="2" fill="none">
    
    <path d="M 50,50 h 400"/> 
    <path d="M 50,100 h 400"/> 
    <path d="M 50,150 h 400"/> 
    <path d="M 50,200 h 400"/> 
    <path d="M 50,250 h 400"/> 
    <path d="M 50,300 h 400"/> 
    <path d="M 50,350 h 400"/> 
    <path d="M 50,400 h 400"/> 
    <path d="M 50,450 h 400"/> 
    <path d="M 50,500 h 400"/> 
    
    <path d="M 50,50 v 200"/> 
    <path d="M 100,50 v 200"/> 
    <path d="M 150,50 v 200"/> 
    <path d="M 200,50 v 200"/> 
    <path d="M 250,50 v 200"/> 
    <path d="M 300,50 v 200"/> 
    <path d="M 350,50 v 200"/> 
    <path d="M 400,50 v 200"/> 
    <path d="M 450,50 v 200"/> 
    
    <path d="M 50,300 v 200"/>
    <path d="M 100,300 v 200"/>
    <path d="M 150,300 v 200"/>
    <path d="M 200,300 v 200"/>
    <path d="M 250,300 v 200"/>
    <path d="M 300,300 v 200"/>
    <path d="M 350,300 v 200"/>
    <path d="M 400,300 v 200"/>
    <path d="M 450,300 v 200"/>
    <line x1="50" y1="50" x2="450" y2="50" stroke="#ffffff" stroke-width="2"/>
    <line x1="450" y1="50" x2="450" y2="500" stroke="#ffffff" stroke-width="2"/>
  </g>
  <!-- 九宫 -->
  <g stroke="#ffffff" stroke-width="1.5" fill="none">
    <path d="M 200,50 l 100 100 m 0,-100 l -100 100"/>
    <path d="M 200,400 l 100 100 m 0,-100 l -100 100"/>
  </g>
  <!-- 楚河汉界 -->
  <text x="250" y="285" font-size="30" text-anchor="middle" font-family="SimSun" fill="#ffffff">楚　河　　汉　界</text>
  <!-- 炮兵位 -->
  <g stroke="#ffffff" stroke-width="1" fill="none">
    
    <path d="M 100,150 m -15,-5 h 10 v -10 m 10,0 v 10 h 10 m 0,10 h -10 v 10 m -10,0 v -10 h -10" />
    <path d="M 400,150 m -15,-5 h 10 v -10 m 10,0 v 10 h 10 m 0,10 h -10 v 10 m -10,0 v -10 h -10" />
    <path d="M 100,400 m -15,-5 h 10 v -10 m 10,0 v 10 h 10 m 0,10 h -10 v 10 m -10,0 v -10 h -10" />
    <path d="M 400,400 m -15,-5 h 10 v -10 m 10,0 v 10 h 10 m 0,10 h -10 v 10 m -10,0 v -10 h -10" />
    <path d="M 150,200 m -15,-5 h 10 v -10 m 10,0 v 10 h 10 m 0,10 h -10 v 10 m -10,0 v -10 h -10" />
    <path d="M 250,200 m -15,-5 h 10 v -10 m 10,0 v 10 h 10 m 0,10 h -10 v 10 m -10,0 v -10 h -10" />
    <path d="M 350,200 m -15,-5 h 10 v -10 m 10,0 v 10 h 10 m 0,10 h -10 v 10 m -10,0 v -10 h -10" />
    <path d="M 150,350 m -15,-5 h 10 v -10 m 10,0 v 10 h 10 m 0,10 h -10 v 10 m -10,0 v -10 h -10" />
    <path d="M 350,350 m -15,-5 h 10 v -10 m 10,0 v 10 h 10 m 0,10 h -10 v 10 m -10,0 v -10 h -10" />
    <path d="M 250,350 m -15,-5 h 10 v -10 m 10,0 v 10 h 10 m 0,10 h -10 v 10 m -10,0 v -10 h -10" />
    
    <path d="M 50,200 m 5,-15 v 10 h 10 m 0,10 h -10 v 10"/>
    <path d="M 50,350 m 5,-15 v 10 h 10 m 0,10 h -10 v 10"/>
    
    <path d="M 450,200 m -15,-5 h 10 v -10 m 0,30 v -10 h -10" />
    <path d="M 450,350 m -15,-5 h 10 v -10 m 0,30 v -10 h -10" />
  </g>
  <g id="xiangqi-pieces">
 
    <g class="xiangqi-piece" 
    transform="translate(50, 50)">
    <circle cx="0" cy="0"
            r="15" 
            stroke="#fff"/>
    <text x="0" y="0"
          fill="white" 
          font-size="22.5" 
          text-anchor="middle" 
          dy="0.35em">
      6
    </text>
  </g> 

    <g class="xiangqi-piece" 
    transform="translate(50, 100)">
    <circle cx="0" cy="0"
            r="15" 
            stroke="#fff"/>
    <text x="0" y="0"
          fill="white" 
          font-size="22.5" 
          text-anchor="middle" 
          dy="0.35em">
      5
    </text>
  </g> 

    <g class="xiangqi-piece" 
    transform="translate(50, 150)">
    <circle cx="0" cy="0"
            r="15" 
            stroke="#fff"/>
    <text x="0" y="0"
          fill="white" 
          font-size="22.5" 
          text-anchor="middle" 
          dy="0.35em">
      4
    </text>
  </g> 

    <g class="xiangqi-piece" 
    transform="translate(50, 200)">
    <circle cx="0" cy="0"
            r="15" 
            stroke="#fff"/>
    <text x="0" y="0"
          fill="white" 
          font-size="22.5" 
          text-anchor="middle" 
          dy="0.35em">
      3
    </text>
  </g> 

    <g class="xiangqi-piece" 
    transform="translate(50, 250)">
    <circle cx="0" cy="0"
            r="15" 
            stroke="#fff"/>
    <text x="0" y="0"
          fill="white" 
          font-size="22.5" 
          text-anchor="middle" 
          dy="0.35em">
      4
    </text>
  </g> 

    <g class="xiangqi-piece" 
    transform="translate(50, 300)">
    <circle cx="0" cy="0"
            r="15" 
            stroke="#fff"/>
    <text x="0" y="0"
          fill="white" 
          font-size="22.5" 
          text-anchor="middle" 
          dy="0.35em">
      3
    </text>
  </g> 

    <g class="xiangqi-piece" 
    transform="translate(50, 350)">
    <circle cx="0" cy="0"
            r="15" 
            stroke="#fff"/>
    <text x="0" y="0"
          fill="white" 
          font-size="22.5" 
          text-anchor="middle" 
          dy="0.35em">
      2
    </text>
  </g> 

    <g class="xiangqi-piece" 
    transform="translate(50, 400)">
    <circle cx="0" cy="0"
            r="15" 
            stroke="#fff"/>
    <text x="0" y="0"
          fill="white" 
          font-size="22.5" 
          text-anchor="middle" 
          dy="0.35em">
      1
    </text>
  </g> 

    <g class="xiangqi-piece" 
    transform="translate(50, 450)">
    <circle cx="0" cy="0"
            r="15" 
            stroke="#fff"/>
    <text x="0" y="0"
          fill="white" 
          font-size="22.5" 
          text-anchor="middle" 
          dy="0.35em">
      2
    </text>
  </g> 

    <g class="xiangqi-piece" 
    transform="translate(50, 500)">
    <circle cx="0" cy="0"
            r="15" 
            stroke="#fff"/>
    <text x="0" y="0"
          fill="white" 
          font-size="22.5" 
          text-anchor="middle" 
          dy="0.35em">
      3
    </text>
  </g> 

    <g class="xiangqi-piece" 
    transform="translate(100, 50)">
    <circle cx="0" cy="0"
            r="15" 
            stroke="#fff"/>
    <text x="0" y="0"
          fill="white" 
          font-size="22.5" 
          text-anchor="middle" 
          dy="0.35em">
      5
    </text>
  </g> 

    <g class="xiangqi-piece" 
    transform="translate(100, 100)">
    <circle cx="0" cy="0"
            r="15" 
            stroke="#fff"/>
    <text x="0" y="0"
          fill="white" 
          font-size="22.5" 
          text-anchor="middle" 
          dy="0.35em">
      4
    </text>
  </g> 

    <g class="xiangqi-piece" 
    transform="translate(100, 150)">
    <circle cx="0" cy="0"
            r="15" 
            stroke="#fff"/>
    <text x="0" y="0"
          fill="white" 
          font-size="22.5" 
          text-anchor="middle" 
          dy="0.35em">
      5
    </text>
  </g> 

    <g class="xiangqi-piece" 
    transform="translate(100, 200)">
    <circle cx="0" cy="0"
            r="15" 
            stroke="#fff"/>
    <text x="0" y="0"
          fill="white" 
          font-size="22.5" 
          text-anchor="middle" 
          dy="0.35em">
      4
    </text>
  </g> 

    <g class="xiangqi-piece" 
    transform="translate(100, 250)">
    <circle cx="0" cy="0"
            r="15" 
            stroke="#fff"/>
    <text x="0" y="0"
          fill="white" 
          font-size="22.5" 
          text-anchor="middle" 
          dy="0.35em">
      3
    </text>
  </g> 

    <g class="xiangqi-piece" 
    transform="translate(100, 300)">
    <circle cx="0" cy="0"
            r="15" 
            stroke="#fff"/>
    <text x="0" y="0"
          fill="white" 
          font-size="22.5" 
          text-anchor="middle" 
          dy="0.35em">
      2
    </text>
  </g> 

    <g class="xiangqi-piece" 
    transform="translate(100, 350)">
    <circle cx="0" cy="0"
            r="15" 
            stroke="#fff"/>
    <text x="0" y="0"
          fill="white" 
          font-size="22.5" 
          text-anchor="middle" 
          dy="0.35em">
      3
    </text>
  </g> 

    <g class="xiangqi-piece" 
    transform="translate(100, 400)">
    <circle cx="0" cy="0"
            r="15" 
            stroke="#fff"/>
    <text x="0" y="0"
          fill="white" 
          font-size="22.5" 
          text-anchor="middle" 
          dy="0.35em">
      2
    </text>
  </g> 

    <g class="xiangqi-piece" 
    transform="translate(100, 450)">
    <circle cx="0" cy="0"
            r="15" 
            stroke="#fff"/>
    <text x="0" y="0"
          fill="white" 
          font-size="22.5" 
          text-anchor="middle" 
          dy="0.35em">
      3
    </text>
  </g> 

    <g class="xiangqi-piece" 
    transform="translate(100, 500)">
    <circle cx="0" cy="0"
            r="15" 
            stroke="#fff"/>
    <text x="0" y="0"
          fill="white" 
          font-size="22.5" 
          text-anchor="middle" 
          dy="0.35em">
      0
    </text>
  </g> 

    <g class="xiangqi-piece" 
    transform="translate(150, 50)">
    <circle cx="0" cy="0"
            r="15" 
            stroke="#fff"/>
    <text x="0" y="0"
          fill="white" 
          font-size="22.5" 
          text-anchor="middle" 
          dy="0.35em">
      6
    </text>
  </g> 

    <g class="xiangqi-piece" 
    transform="translate(150, 100)">
    <circle cx="0" cy="0"
            r="15" 
            stroke="#fff"/>
    <text x="0" y="0"
          fill="white" 
          font-size="22.5" 
          text-anchor="middle" 
          dy="0.35em">
      5
    </text>
  </g> 

    <g class="xiangqi-piece" 
    transform="translate(150, 150)">
    <circle cx="0" cy="0"
            r="15" 
            stroke="#fff"/>
    <text x="0" y="0"
          fill="white" 
          font-size="22.5" 
          text-anchor="middle" 
          dy="0.35em">
      4
    </text>
  </g> 

    <g class="xiangqi-piece" 
    transform="translate(150, 200)">
    <circle cx="0" cy="0"
            r="15" 
            stroke="#fff"/>
    <text x="0" y="0"
          fill="white" 
          font-size="22.5" 
          text-anchor="middle" 
          dy="0.35em">
      3
    </text>
  </g> 

    <g class="xiangqi-piece" 
    transform="translate(150, 250)">
    <circle cx="0" cy="0"
            r="15" 
            stroke="#fff"/>
    <text x="0" y="0"
          fill="white" 
          font-size="22.5" 
          text-anchor="middle" 
          dy="0.35em">
      4
    </text>
  </g> 

    <g class="xiangqi-piece" 
    transform="translate(150, 300)">
    <circle cx="0" cy="0"
            r="15" 
            stroke="#fff"/>
    <text x="0" y="0"
          fill="white" 
          font-size="22.5" 
          text-anchor="middle" 
          dy="0.35em">
      3
    </text>
  </g> 

    <g class="xiangqi-piece" 
    transform="translate(150, 350)">
    <circle cx="0" cy="0"
            r="15" 
            stroke="#fff"/>
    <text x="0" y="0"
          fill="white" 
          font-size="22.5" 
          text-anchor="middle" 
          dy="0.35em">
      2
    </text>
  </g> 

    <g class="xiangqi-piece" 
    transform="translate(150, 400)">
    <circle cx="0" cy="0"
            r="15" 
            stroke="#fff"/>
    <text x="0" y="0"
          fill="white" 
          font-size="22.5" 
          text-anchor="middle" 
          dy="0.35em">
      1
    </text>
  </g> 

    <g class="xiangqi-piece" 
    transform="translate(150, 450)">
    <circle cx="0" cy="0"
            r="15" 
            stroke="#fff"/>
    <text x="0" y="0"
          fill="white" 
          font-size="22.5" 
          text-anchor="middle" 
          dy="0.35em">
      2
    </text>
  </g> 

    <g class="xiangqi-piece" 
    transform="translate(150, 500)">
    <circle cx="0" cy="0"
            r="15" 
            stroke="#fff"/>
    <text x="0" y="0"
          fill="white" 
          font-size="22.5" 
          text-anchor="middle" 
          dy="0.35em">
      3
    </text>
  </g> 

    <g class="xiangqi-piece" 
    transform="translate(200, 50)">
    <circle cx="0" cy="0"
            r="15" 
            stroke="#fff"/>
    <text x="0" y="0"
          fill="white" 
          font-size="22.5" 
          text-anchor="middle" 
          dy="0.35em">
      5
    </text>
  </g> 

    <g class="xiangqi-piece" 
    transform="translate(200, 100)">
    <circle cx="0" cy="0"
            r="15" 
            stroke="#fff"/>
    <text x="0" y="0"
          fill="white" 
          font-size="22.5" 
          text-anchor="middle" 
          dy="0.35em">
      4
    </text>
  </g> 

    <g class="xiangqi-piece" 
    transform="translate(200, 150)">
    <circle cx="0" cy="0"
            r="15" 
            stroke="#fff"/>
    <text x="0" y="0"
          fill="white" 
          font-size="22.5" 
          text-anchor="middle" 
          dy="0.35em">
      5
    </text>
  </g> 

    <g class="xiangqi-piece" 
    transform="translate(200, 200)">
    <circle cx="0" cy="0"
            r="15" 
            stroke="#fff"/>
    <text x="0" y="0"
          fill="white" 
          font-size="22.5" 
          text-anchor="middle" 
          dy="0.35em">
      4
    </text>
  </g> 

    <g class="xiangqi-piece" 
    transform="translate(200, 250)">
    <circle cx="0" cy="0"
            r="15" 
            stroke="#fff"/>
    <text x="0" y="0"
          fill="white" 
          font-size="22.5" 
          text-anchor="middle" 
          dy="0.35em">
      3
    </text>
  </g> 

    <g class="xiangqi-piece" 
    transform="translate(200, 300)">
    <circle cx="0" cy="0"
            r="15" 
            stroke="#fff"/>
    <text x="0" y="0"
          fill="white" 
          font-size="22.5" 
          text-anchor="middle" 
          dy="0.35em">
      2
    </text>
  </g> 

    <g class="xiangqi-piece" 
    transform="translate(200, 350)">
    <circle cx="0" cy="0"
            r="15" 
            stroke="#fff"/>
    <text x="0" y="0"
          fill="white" 
          font-size="22.5" 
          text-anchor="middle" 
          dy="0.35em">
      3
    </text>
  </g> 

    <g class="xiangqi-piece" 
    transform="translate(200, 400)">
    <circle cx="0" cy="0"
            r="15" 
            stroke="#fff"/>
    <text x="0" y="0"
          fill="white" 
          font-size="22.5" 
          text-anchor="middle" 
          dy="0.35em">
      4
    </text>
  </g> 

    <g class="xiangqi-piece" 
    transform="translate(200, 450)">
    <circle cx="0" cy="0"
            r="15" 
            stroke="#fff"/>
    <text x="0" y="0"
          fill="white" 
          font-size="22.5" 
          text-anchor="middle" 
          dy="0.35em">
      1
    </text>
  </g> 

    <g class="xiangqi-piece" 
    transform="translate(200, 500)">
    <circle cx="0" cy="0"
            r="15" 
            stroke="#fff"/>
    <text x="0" y="0"
          fill="white" 
          font-size="22.5" 
          text-anchor="middle" 
          dy="0.35em">
      2
    </text>
  </g> 

    <g class="xiangqi-piece" 
    transform="translate(250, 50)">
    <circle cx="0" cy="0"
            r="15" 
            stroke="#fff"/>
    <text x="0" y="0"
          fill="white" 
          font-size="22.5" 
          text-anchor="middle" 
          dy="0.35em">
      6
    </text>
  </g> 

    <g class="xiangqi-piece" 
    transform="translate(250, 100)">
    <circle cx="0" cy="0"
            r="15" 
            stroke="#fff"/>
    <text x="0" y="0"
          fill="white" 
          font-size="22.5" 
          text-anchor="middle" 
          dy="0.35em">
      5
    </text>
  </g> 

    <g class="xiangqi-piece" 
    transform="translate(250, 150)">
    <circle cx="0" cy="0"
            r="15" 
            stroke="#fff"/>
    <text x="0" y="0"
          fill="white" 
          font-size="22.5" 
          text-anchor="middle" 
          dy="0.35em">
      4
    </text>
  </g> 

    <g class="xiangqi-piece" 
    transform="translate(250, 200)">
    <circle cx="0" cy="0"
            r="15" 
            stroke="#fff"/>
    <text x="0" y="0"
          fill="white" 
          font-size="22.5" 
          text-anchor="middle" 
          dy="0.35em">
      3
    </text>
  </g> 

    <g class="xiangqi-piece" 
    transform="translate(250, 250)">
    <circle cx="0" cy="0"
            r="15" 
            stroke="#fff"/>
    <text x="0" y="0"
          fill="white" 
          font-size="22.5" 
          text-anchor="middle" 
          dy="0.35em">
      4
    </text>
  </g> 

    <g class="xiangqi-piece" 
    transform="translate(250, 300)">
    <circle cx="0" cy="0"
            r="15" 
            stroke="#fff"/>
    <text x="0" y="0"
          fill="white" 
          font-size="22.5" 
          text-anchor="middle" 
          dy="0.35em">
      3
    </text>
  </g> 

    <g class="xiangqi-piece" 
    transform="translate(250, 350)">
    <circle cx="0" cy="0"
            r="15" 
            stroke="#fff"/>
    <text x="0" y="0"
          fill="white" 
          font-size="22.5" 
          text-anchor="middle" 
          dy="0.35em">
      2
    </text>
  </g> 

    <g class="xiangqi-piece" 
    transform="translate(250, 400)">
    <circle cx="0" cy="0"
            r="15" 
            stroke="#fff"/>
    <text x="0" y="0"
          fill="white" 
          font-size="22.5" 
          text-anchor="middle" 
          dy="0.35em">
      3
    </text>
  </g> 

    <g class="xiangqi-piece" 
    transform="translate(250, 450)">
    <circle cx="0" cy="0"
            r="15" 
            stroke="#fff"/>
    <text x="0" y="0"
          fill="white" 
          font-size="22.5" 
          text-anchor="middle" 
          dy="0.35em">
      2
    </text>
  </g> 

    <g class="xiangqi-piece" 
    transform="translate(250, 500)">
    <circle cx="0" cy="0"
            r="15" 
            stroke="#fff"/>
    <text x="0" y="0"
          fill="white" 
          font-size="22.5" 
          text-anchor="middle" 
          dy="0.35em">
      3
    </text>
  </g> 

    <g class="xiangqi-piece" 
    transform="translate(300, 50)">
    <circle cx="0" cy="0"
            r="15" 
            stroke="#fff"/>
    <text x="0" y="0"
          fill="white" 
          font-size="22.5" 
          text-anchor="middle" 
          dy="0.35em">
      5
    </text>
  </g> 

    <g class="xiangqi-piece" 
    transform="translate(300, 100)">
    <circle cx="0" cy="0"
            r="15" 
            stroke="#fff"/>
    <text x="0" y="0"
          fill="white" 
          font-size="22.5" 
          text-anchor="middle" 
          dy="0.35em">
      4
    </text>
  </g> 

    <g class="xiangqi-piece" 
    transform="translate(300, 150)">
    <circle cx="0" cy="0"
            r="15" 
            stroke="#fff"/>
    <text x="0" y="0"
          fill="white" 
          font-size="22.5" 
          text-anchor="middle" 
          dy="0.35em">
      5
    </text>
  </g> 

    <g class="xiangqi-piece" 
    transform="translate(300, 200)">
    <circle cx="0" cy="0"
            r="15" 
            stroke="#fff"/>
    <text x="0" y="0"
          fill="white" 
          font-size="22.5" 
          text-anchor="middle" 
          dy="0.35em">
      4
    </text>
  </g> 

    <g class="xiangqi-piece" 
    transform="translate(300, 250)">
    <circle cx="0" cy="0"
            r="15" 
            stroke="#fff"/>
    <text x="0" y="0"
          fill="white" 
          font-size="22.5" 
          text-anchor="middle" 
          dy="0.35em">
      3
    </text>
  </g> 

    <g class="xiangqi-piece" 
    transform="translate(300, 300)">
    <circle cx="0" cy="0"
            r="15" 
            stroke="#fff"/>
    <text x="0" y="0"
          fill="white" 
          font-size="22.5" 
          text-anchor="middle" 
          dy="0.35em">
      4
    </text>
  </g> 

    <g class="xiangqi-piece" 
    transform="translate(300, 350)">
    <circle cx="0" cy="0"
            r="15" 
            stroke="#fff"/>
    <text x="0" y="0"
          fill="white" 
          font-size="22.5" 
          text-anchor="middle" 
          dy="0.35em">
      3
    </text>
  </g> 

    <g class="xiangqi-piece" 
    transform="translate(300, 400)">
    <circle cx="0" cy="0"
            r="15" 
            stroke="#fff"/>
    <text x="0" y="0"
          fill="white" 
          font-size="22.5" 
          text-anchor="middle" 
          dy="0.35em">
      2
    </text>
  </g> 

    <g class="xiangqi-piece" 
    transform="translate(300, 450)">
    <circle cx="0" cy="0"
            r="15" 
            stroke="#fff"/>
    <text x="0" y="0"
          fill="white" 
          font-size="22.5" 
          text-anchor="middle" 
          dy="0.35em">
      3
    </text>
  </g> 

    <g class="xiangqi-piece" 
    transform="translate(300, 500)">
    <circle cx="0" cy="0"
            r="15" 
            stroke="#fff"/>
    <text x="0" y="0"
          fill="white" 
          font-size="22.5" 
          text-anchor="middle" 
          dy="0.35em">
      2
    </text>
  </g> 

    <g class="xiangqi-piece" 
    transform="translate(350, 50)">
    <circle cx="0" cy="0"
            r="15" 
            stroke="#fff"/>
    <text x="0" y="0"
          fill="white" 
          font-size="22.5" 
          text-anchor="middle" 
          dy="0.35em">
      6
    </text>
  </g> 

    <g class="xiangqi-piece" 
    transform="translate(350, 100)">
    <circle cx="0" cy="0"
            r="15" 
            stroke="#fff"/>
    <text x="0" y="0"
          fill="white" 
          font-size="22.5" 
          text-anchor="middle" 
          dy="0.35em">
      5
    </text>
  </g> 

    <g class="xiangqi-piece" 
    transform="translate(350, 150)">
    <circle cx="0" cy="0"
            r="15" 
            stroke="#fff"/>
    <text x="0" y="0"
          fill="white" 
          font-size="22.5" 
          text-anchor="middle" 
          dy="0.35em">
      4
    </text>
  </g> 

    <g class="xiangqi-piece" 
    transform="translate(350, 200)">
    <circle cx="0" cy="0"
            r="15" 
            stroke="#fff"/>
    <text x="0" y="0"
          fill="white" 
          font-size="22.5" 
          text-anchor="middle" 
          dy="0.35em">
      5
    </text>
  </g> 

    <g class="xiangqi-piece" 
    transform="translate(350, 250)">
    <circle cx="0" cy="0"
            r="15" 
            stroke="#fff"/>
    <text x="0" y="0"
          fill="white" 
          font-size="22.5" 
          text-anchor="middle" 
          dy="0.35em">
      4
    </text>
  </g> 

    <g class="xiangqi-piece" 
    transform="translate(350, 300)">
    <circle cx="0" cy="0"
            r="15" 
            stroke="#fff"/>
    <text x="0" y="0"
          fill="white" 
          font-size="22.5" 
          text-anchor="middle" 
          dy="0.35em">
      3
    </text>
  </g> 

    <g class="xiangqi-piece" 
    transform="translate(350, 350)">
    <circle cx="0" cy="0"
            r="15" 
            stroke="#fff"/>
    <text x="0" y="0"
          fill="white" 
          font-size="22.5" 
          text-anchor="middle" 
          dy="0.35em">
      4
    </text>
  </g> 

    <g class="xiangqi-piece" 
    transform="translate(350, 400)">
    <circle cx="0" cy="0"
            r="15" 
            stroke="#fff"/>
    <text x="0" y="0"
          fill="white" 
          font-size="22.5" 
          text-anchor="middle" 
          dy="0.35em">
      3
    </text>
  </g> 

    <g class="xiangqi-piece" 
    transform="translate(350, 450)">
    <circle cx="0" cy="0"
            r="15" 
            stroke="#fff"/>
    <text x="0" y="0"
          fill="white" 
          font-size="22.5" 
          text-anchor="middle" 
          dy="0.35em">
      4
    </text>
  </g> 

    <g class="xiangqi-piece" 
    transform="translate(350, 500)">
    <circle cx="0" cy="0"
            r="15" 
            stroke="#fff"/>
    <text x="0" y="0"
          fill="white" 
          font-size="22.5" 
          text-anchor="middle" 
          dy="0.35em">
      3
    </text>
  </g> 

    <g class="xiangqi-piece" 
    transform="translate(400, 50)">
    <circle cx="0" cy="0"
            r="15" 
            stroke="#fff"/>
    <text x="0" y="0"
          fill="white" 
          font-size="22.5" 
          text-anchor="middle" 
          dy="0.35em">
      5
    </text>
  </g> 

    <g class="xiangqi-piece" 
    transform="translate(400, 100)">
    <circle cx="0" cy="0"
            r="15" 
            stroke="#fff"/>
    <text x="0" y="0"
          fill="white" 
          font-size="22.5" 
          text-anchor="middle" 
          dy="0.35em">
      6
    </text>
  </g> 

    <g class="xiangqi-piece" 
    transform="translate(400, 150)">
    <circle cx="0" cy="0"
            r="15" 
            stroke="#fff"/>
    <text x="0" y="0"
          fill="white" 
          font-size="22.5" 
          text-anchor="middle" 
          dy="0.35em">
      5
    </text>
  </g> 

    <g class="xiangqi-piece" 
    transform="translate(400, 200)">
    <circle cx="0" cy="0"
            r="15" 
            stroke="#fff"/>
    <text x="0" y="0"
          fill="white" 
          font-size="22.5" 
          text-anchor="middle" 
          dy="0.35em">
      4
    </text>
  </g> 

    <g class="xiangqi-piece" 
    transform="translate(400, 250)">
    <circle cx="0" cy="0"
            r="15" 
            stroke="#fff"/>
    <text x="0" y="0"
          fill="white" 
          font-size="22.5" 
          text-anchor="middle" 
          dy="0.35em">
      5
    </text>
  </g> 

    <g class="xiangqi-piece" 
    transform="translate(400, 300)">
    <circle cx="0" cy="0"
            r="15" 
            stroke="#fff"/>
    <text x="0" y="0"
          fill="white" 
          font-size="22.5" 
          text-anchor="middle" 
          dy="0.35em">
      4
    </text>
  </g> 

    <g class="xiangqi-piece" 
    transform="translate(400, 350)">
    <circle cx="0" cy="0"
            r="15" 
            stroke="#fff"/>
    <text x="0" y="0"
          fill="white" 
          font-size="22.5" 
          text-anchor="middle" 
          dy="0.35em">
      3
    </text>
  </g> 

    <g class="xiangqi-piece" 
    transform="translate(400, 400)">
    <circle cx="0" cy="0"
            r="15" 
            stroke="#fff"/>
    <text x="0" y="0"
          fill="white" 
          font-size="22.5" 
          text-anchor="middle" 
          dy="0.35em">
      4
    </text>
  </g> 

    <g class="xiangqi-piece" 
    transform="translate(400, 450)">
    <circle cx="0" cy="0"
            r="15" 
            stroke="#fff"/>
    <text x="0" y="0"
          fill="white" 
          font-size="22.5" 
          text-anchor="middle" 
          dy="0.35em">
      3
    </text>
  </g> 

    <g class="xiangqi-piece" 
    transform="translate(400, 500)">
    <circle cx="0" cy="0"
            r="15" 
            stroke="#fff"/>
    <text x="0" y="0"
          fill="white" 
          font-size="22.5" 
          text-anchor="middle" 
          dy="0.35em">
      4
    </text>
  </g> 

    <g class="xiangqi-piece" 
    transform="translate(450, 50)">
    <circle cx="0" cy="0"
            r="15" 
            stroke="#fff"/>
    <text x="0" y="0"
          fill="white" 
          font-size="22.5" 
          text-anchor="middle" 
          dy="0.35em">
      6
    </text>
  </g> 

    <g class="xiangqi-piece" 
    transform="translate(450, 100)">
    <circle cx="0" cy="0"
            r="15" 
            stroke="#fff"/>
    <text x="0" y="0"
          fill="white" 
          font-size="22.5" 
          text-anchor="middle" 
          dy="0.35em">
      5
    </text>
  </g> 

    <g class="xiangqi-piece" 
    transform="translate(450, 150)">
    <circle cx="0" cy="0"
            r="15" 
            stroke="#fff"/>
    <text x="0" y="0"
          fill="white" 
          font-size="22.5" 
          text-anchor="middle" 
          dy="0.35em">
      6
    </text>
  </g> 

    <g class="xiangqi-piece" 
    transform="translate(450, 200)">
    <circle cx="0" cy="0"
            r="15" 
            stroke="#fff"/>
    <text x="0" y="0"
          fill="white" 
          font-size="22.5" 
          text-anchor="middle" 
          dy="0.35em">
      5
    </text>
  </g> 

    <g class="xiangqi-piece" 
    transform="translate(450, 250)">
    <circle cx="0" cy="0"
            r="15" 
            stroke="#fff"/>
    <text x="0" y="0"
          fill="white" 
          font-size="22.5" 
          text-anchor="middle" 
          dy="0.35em">
      4
    </text>
  </g> 

    <g class="xiangqi-piece" 
    transform="translate(450, 300)">
    <circle cx="0" cy="0"
            r="15" 
            stroke="#fff"/>
    <text x="0" y="0"
          fill="white" 
          font-size="22.5" 
          text-anchor="middle" 
          dy="0.35em">
      5
    </text>
  </g> 

    <g class="xiangqi-piece" 
    transform="translate(450, 350)">
    <circle cx="0" cy="0"
            r="15" 
            stroke="#fff"/>
    <text x="0" y="0"
          fill="white" 
          font-size="22.5" 
          text-anchor="middle" 
          dy="0.35em">
      4
    </text>
  </g> 

    <g class="xiangqi-piece" 
    transform="translate(450, 400)">
    <circle cx="0" cy="0"
            r="15" 
            stroke="#fff"/>
    <text x="0" y="0"
          fill="white" 
          font-size="22.5" 
          text-anchor="middle" 
          dy="0.35em">
      5
    </text>
  </g> 

    <g class="xiangqi-piece" 
    transform="translate(450, 450)">
    <circle cx="0" cy="0"
            r="15" 
            stroke="#fff"/>
    <text x="0" y="0"
          fill="white" 
          font-size="22.5" 
          text-anchor="middle" 
          dy="0.35em">
      4
    </text>
  </g> 

    <g class="xiangqi-piece" 
    transform="translate(450, 500)">
    <circle cx="0" cy="0"
            r="15" 
            stroke="#fff"/>
    <text x="0" y="0"
          fill="white" 
          font-size="22.5" 
          text-anchor="middle" 
          dy="0.35em">
      5
    </text>
  </g> 
      <g class="xiangqi-piece" 
     transform="translate(100, 500)">
    <circle cx="0" cy="0"
            r="20" 
            fill="red" 
            stroke="#fff"/>
    <text x="0" y="0"
          fill="white" 
          font-size="22.5" 
          text-anchor="middle" 
          dy="0.35em">
      马
    </text>
  </g>
  </g>
</svg>
